<svg xmlns="http://www.w3.org/2000/svg" xmlns:xlink="http://www.w3.org/1999/xlink" version="1.1" x="0px" y="0px" viewBox="0 0 100 125" enable-background="new 0 0 100 100" xml:space="preserve"><path fill="none" stroke="#000000" stroke-width="3" stroke-linecap="round" stroke-linejoin="round" stroke-miterlimit="10" d="  M27.585,59.583H33 M20,40.5V80h60.094V40.5 M20,27.748c0,3.429,2.779,6.21,6.208,6.21c2.746,0,5.057-1.795,5.871-4.271l0.183,0.001  c0.816,2.475,3.125,4.27,5.873,4.27c2.749,0,5.053-1.795,5.87-4.271l0.184,0.001c0.816,2.475,3.123,4.27,5.872,4.27  c2.746,0,5.057-1.794,5.871-4.271l0.186-0.002c0.812,2.478,3.119,4.272,5.869,4.272c2.746,0,5.056-1.794,5.873-4.271l0.186-0.002  c0.812,2.478,3.119,4.272,5.869,4.272c3.428,0,6.205-2.781,6.205-6.21V20.46H20.014L20,27.748z M40,71.742V44.981H27.585v26.761H40z   M72.509,61.75V44.981H48V61.75H72.509z"/></svg>